<?xml version="1.0" encoding="UTF-8"?><svg xmlns="http://www.w3.org/2000/svg" viewBox="0 0 519.4 109.27"><defs><style>.d{fill:#fff;}</style></defs><g id="a"/><g id="b"><g id="c"><g><path class="d" d="M61.83,72.82l-27.62-.15v1.89c0,3.68,1.06,7.03,3.18,10.03,2.12,3,4.46,4.5,7.04,4.5s6.42-.96,11.39-2.88c4.97-1.92,10.63-4.67,16.99-8.25l2.65-1.59c1.82-1.01,3.05-1.77,3.71-2.27,2.98-1.87,4.84-2.8,5.6-2.8,.91,0,1.36,.83,1.36,2.5,0,1.82-.33,3.89-.98,6.21-.66,2.32-1.49,4.55-2.5,6.7-1.01,2.15-2.02,3.67-3.03,4.58-2.88,2.57-7.8,5.37-14.76,8.4s-14.03,5.4-21.19,7.11c-2.42,.5-4.64,.76-6.66,.76-6.91,0-13.23-1.4-18.96-4.2-5.73-2.8-10.17-6.65-13.32-11.54-3.15-4.89-4.73-10.34-4.73-16.35,0-4.94,1.03-10.39,3.1-16.35,2.07-5.95,4.97-11.89,8.7-17.82,3.73-5.93,7.95-11.31,12.64-16.16,4.09-4.24,8.65-8.08,13.7-11.54,5.04-3.46,9.95-6.12,14.72-7.98,4.77-1.87,9.14-2.8,13.13-2.8,6.26,0,11.62,1.78,16.08,5.34,4.46,3.56,6.7,7.86,6.7,12.9,0,2.22-.4,4.64-1.21,7.27-.81,2.62-1.89,4.92-3.25,6.89-1.41,2.12-3.51,4.19-6.28,6.21-2.78,2.02-5.9,3.76-9.38,5.22-4.19,1.67-7.77,2.5-10.75,2.5s-4.46-.73-4.46-2.19c0-.86,.83-2.2,2.5-4.01,1.82-1.61,3.56-3.83,5.22-6.66,1.61-2.98,3.03-6.48,4.24-10.52,1.21-4.04,1.82-7.19,1.82-9.46,0-1.87-.56-2.8-1.67-2.8-1.77,0-4.95,1.94-9.54,5.83-4.59,3.89-8.22,7.72-10.9,11.5-2.52,3.53-4.59,7.13-6.21,10.79-1.62,3.66-2.7,7.25-3.25,10.79h40.42c4.44,0,6.66,1.13,6.66,3.41,0,2.12-2.47,5.58-7.42,10.37-4.89,4.44-9.38,6.66-13.47,6.66Z"/><path class="d" d="M115.63,51.77c6.97-8.53,14.72-14.26,23.4-14.26,5.74,0,10.85,5.42,13.49,11.62,7.13-7.28,13.79-12.09,20.3-12.09,4.19,0,8.06,1.86,11,4.81,6.04,6.04,5.27,15.65,5.27,23.56,0,9.92-.47,20.3-.47,30.84,0,5.12-2.94,9.61-8.52,9.61-2.48,0-2.48-1.71-4.18-2.79-.78-.47-1.55-.16-2.33-.16-.62,0-1.55-.46-2.02-.93-3.1-3.1-3.1-13.49-3.1-19.69,0-5.73,1.24-15.5,1.24-19.22,0-2.33-.62-5.27-3.72-5.27-2.48,0-7.75,4.5-11.62,8.37-.16,7.44-.62,13.64-1.24,21.7-.31,3.41-.46,8.21-.78,11.78-.15,1.55-.62,2.33-2.94,3.1-1.24,.46-1.71,1.24-2.64,1.24-1.55,0-2.79-.46-3.1-.46-1.55,.15-2.01,2.33-3.88,2.33-6.82,0-7.13-4.5-7.13-10.39,0-8.21,1.55-14.26,1.55-34.1,0-2.63-.31-3.72-1.24-3.72-3.72,0-15.5,7.13-17.51,16.74v6.2c0,2.79,.31,15.66,.31,18.29,0,.78-1.08,4.19-1.71,4.65-2.63,1.86-5.12,3.1-7.13,3.1-1.4,0-2.17-1.39-3.25-1.39-2.95,0-3.41-.47-5.12-.62-1.4-.16-1.55-1.55-2.01-6.67-.31-3.72-.47-7.75-.47-18.13,0-4.19,1.24-37.51,3.88-39.53,.62-.46,.78-1.7,2.17-1.86,.78-.16,1.24-.93,2.02-.93,1.24,0,2.01,1.08,3.41,1.86,.77,.46,1.7,0,2.17,0,.62,0,1.39,.46,1.55,.46,5.12,1.24,4.8,5.74,4.5,10.23,0,.31-.16,.93-.16,1.71Z"/><path class="d" d="M220.1,51.92l4.5-5.27c2.94-3.25,6.04-5.58,12.71-5.58,16.74,0,26.35,14.1,26.35,31.93,0,10.85-10.7,33.17-24.33,33.17-8.06,0-14.1-3.57-19.06-7.59,0,2.94-.16,6.04-.62,6.51-1.55,1.55-4.19,3.72-6.82,3.72-1.08,0-2.33-2.48-2.95-2.79-.93-.46-2.01,.46-2.79-.62-.77-1.24-2.63-1.86-3.1-3.1-2.17-5.74-3.56-19.06-3.56-29.6,0-16.12,1.08-39.21,2.32-54.87,.62-7.29,3.25-12.86,5.43-15.5,.62-.77,4.18-2.32,4.96-2.32,1.39,0,2.94,2.01,3.87,2.01,1.24,0,2.02-.46,2.79-.46,1.55,0,1.86,3.72,1.86,4.96,.16,4.8-1.55,21.7-1.55,41.85v3.56Zm0,21.24c0,2.33,.16,4.65,.16,6.82,1.39,3.26,3.56,6.36,8.52,6.51,8.37,.31,16.89-9.3,16.89-17.52,0-6.51-3.56-9.76-10.23-9.61-6.97,.16-13.64,6.04-15.34,13.79Z"/><path class="d" d="M291.86,49.44c4.03-5.12,15.04-17.83,20.77-17.83,1.7,0,3.56,2.95,3.88,4.65,.15,.93,0,1.71,0,2.79,0,1.39,3.1,1.86,3.25,3.25,.15,1.08,.93,2.17,.93,2.94,0,1.55-2.48,5.27-3.57,6.2-6.97,5.74-10.69,6.2-22.94,16.12,.16,2.33,.16,4.96,.16,7.59,0,9.92-1.08,15.66-1.08,25.88,0,2.17-1.08,2.48-1.4,3.1-.46,.93-2.48,1.24-4.65,2.94-.31,.31-1.4,.78-2.33,.78-1.55,0-2.63-1.71-3.1-1.71-2.64-.31-4.96-.78-6.2-2.48-1.55-2.01-1.55-6.66-2.02-9.3-.31-2.17-.46-4.5-.46-13.64,0-10.08-.15-27.12,2.95-36.42,.93-2.94,2.48-4.65,4.18-5.89,1.24-.93,1.55-2.33,2.33-2.33,1.4,0,2.79,0,3.57,.31,1.24,.46,1.71,2.32,2.17,3.56,.62,1.55,.62,1.4,1.39,1.24,.62-.16,1.24,1.55,1.86,6.2,0,.62,.16,1.24,.31,2.01Z"/><path class="d" d="M358.82,100.28c-4.96,4.8-11.47,7.75-19.53,7.75-12.4,0-20.46-9.15-20.46-21.08,0-18.29,23.71-25.26,38.28-25.26-.31-7.75-2.79-10.7-7.29-10.7-3.25,0-7.75,1.55-7.75,2.79,0,.93,.62,1.39,.62,2.17s-2.79,1.4-5.89,2.33c-4.34,1.24-8.37,3.41-9.61,3.41-1.86,0-2.02-1.71-2.95-2.64-1.08-1.08-.78-2.17-.78-3.56,0-1.71-.31-3.25-.31-3.72,0-2.95,1.86-6.36,3.72-8.83,5.42-7.29,14.1-10.54,24.18-10.54s22.79,9.61,26.35,20.3c.62,2.01,.62,9.76,.62,11.31,0,7.6-.62,17.21-.62,23.1,0,3.72-.31,15.96-3.56,19.06-.93,.93-2.33,.78-3.72,1.24-1.08,.31-1.4,.77-2.64,1.39-.62,.31-2.48,.46-4.18,.46-.93,0-2.63-1.55-2.63-2.48,0-1.71-1.4-4.5-1.86-6.51Zm-1.39-26.82c-7.75,.31-19.38,6.51-19.38,13.02,0,2.17,2.33,2.79,5.12,2.79,6.66,0,11.47-2.95,14.72-4.81l-.46-11Z"/><path class="d" d="M405.17,76.41c0,6.2,4.18,11.16,10.38,11.16,7.75,0,14.11-4.34,19.22-9.46,.78-.78,1.86-1.08,2.48-1.86l3.56-4.65c.62-.78,1.4-.62,1.86-1.24,1.55-1.86,3.57-4.8,4.18-4.8,.16,0,.62,2.01,.62,2.32,0,.93-.93,1.71-1.08,3.26-.31,3.72-2.94,4.34-3.25,6.66-.46,3.1,.31,5.43-2.01,9.92-.46,.93-.62,2.48-1.24,3.72-.62,1.24-2.79,3.56-3.72,4.34-6.98,6.35-13.79,11.31-24.18,11.31-16.28,0-25.88-13.48-25.88-26.97,0-30.07,29.14-45.72,45.72-45.72,5.27,0,7.13,3.1,9.14,7.44,.46,1.08,2.01,.77,3.1,1.86,1.55,1.55,2.02,3.88,2.02,5.74,0,2.79-1.4,3.88-2.79,6.04-2.17,3.41-6.36,6.51-11.32,7.91-2.48,.62-2.94,1.7-5.11,1.86-.93,0-2.64,.93-3.72,.93-.46,0-1.55-.31-1.55-1.09,0-.93,.62-2.17,.62-2.79,0-1.08-1.08-1.71-1.08-3.88,0-.78,.31-1.55,.93-2.17,.47-.47,1.4-1.24,1.86-2.33-10.54,5.27-18.75,13.17-18.75,22.47Z"/><path class="d" d="M513.04,63.39c0,.93,.46,1.7,.46,3.41s-1.24,2.48-2.33,3.25c-.62,.47-1.08,1.4-2.01,1.71-.16,0-.31,.16-.62,.16l-.93,.31c-.31,0-.46,0-.62,.15-6.51,2.33-17.98,3.41-29.29,3.41-1.39,0-3.88,.16-6.82,0,.62,10.08,11.16,10.23,15.5,10.23,10.39,0,22.63-6.67,31.93-14.73,.77-.62,1.08,.31,1.08,.93,0,2.63-1.4,4.18-2.48,5.89s-.62,2.33-1.08,3.1c-.78,1.24-2.95,2.79-2.95,4.34,0,1.08,1.08,.62,1.08,1.71,0,2.63-2.17,4.81-3.56,6.82-3.72,5.27-13.79,13.79-26.35,13.79-17.36,0-31.93-15.81-31.93-34.41s20.92-40.45,40.14-40.45c12.86,0,24.18,6.97,24.18,19.84,0,4.18-1.24,7.28-3.41,10.54Zm-37.97-2.79h2.33c6.82,0,15.19-.31,22.32-1.86,.16-.62,.31-1.24,.31-2.17,0-3.25-1.4-7.13-7.29-7.13-7.75,0-13.79,4.96-17.67,11.16Z"/></g></g></g></svg>